<?xml version="1.0" encoding="UTF-8" standalone="no" ?>
<!DOCTYPE svg PUBLIC "-//W3C//DTD SVG 1.1//EN" "http://www.w3.org/Graphics/SVG/1.1/DTD/svg11.dtd">
<svg xmlns="http://www.w3.org/2000/svg" xmlns:xlink="http://www.w3.org/1999/xlink" version="1.1" width="1280" height="1024" viewBox="0 0 1280 1024" xml:space="preserve">
<desc>ClubJet brand mark (from print_transparent.svg)</desc>
<defs></defs>
<g transform="matrix(1 0 0 1 640 512)">
<rect style="fill:#ffffff;fill-opacity:0" x="-640" y="-512" width="1280" height="1024" />
</g>
<g transform="matrix(1.9211538461538462 0 0 1.9211538461538462 640 394.0191697076308)">
<g>
<g transform="matrix(0.6957030734960304 0 0 0.6957030734960304 0.5989950937218964 19.525410029269437)">
<linearGradient id="SVGID_1_188737" gradientUnits="userSpaceOnUse" x1="149.0181885" y1="266.4411621" x2="149.0181885" y2="148.8927612">
<stop offset="0%" style="stop-color:rgb(58,40,26);stop-opacity:1"/>
<stop offset="94.52991%" style="stop-color:rgb(228,180,115);stop-opacity:1"/>
<stop offset="100%" style="stop-color:rgb(253,201,127);stop-opacity:1"/>
</linearGradient>
<path style="fill:url(#SVGID_1_188737)" d="M 84.5934143 235.9843445 L 109.3658218 207.4281311 L 109.3658218 259.0477295 L 84.5934143 259.0477295 L 84.5934143 235.9843445 z M 119.2854462 259.0477295 L 144.0583802 259.0477295 L 144.0583802 149.9867096 L 119.2854462 178.542923 L 119.2854462 259.0477295 z M 153.9779968 259.0477295 L 178.750412 259.0477295 L 178.750412 160.6874085 L 153.9779968 189.2436219 L 153.9779968 259.0477295 z M 188.6700287 259.0477295 L 213.44296269999998 259.0477295 L 213.44296269999998 90.883316 L 188.6700287 119.4395294 L 188.6700287 259.0477295 z"/>
</g>
<g transform="matrix(0.6957030734960304 0 0 0.6957030734960304 0 0)">
<linearGradient id="SVGID_2_188738" gradientUnits="userSpaceOnUse" x1="148.157196" y1="214.6192169" x2="148.157196" y2="117.2678528">
<stop offset="0%" style="stop-color:rgb(58,40,26);stop-opacity:1"/>
<stop offset="94.52991%" style="stop-color:rgb(228,180,115);stop-opacity:1"/>
<stop offset="100%" style="stop-color:rgb(253,201,127);stop-opacity:1"/>
</linearGradient>
<path style="fill:url(#SVGID_2_188738)" d="M 229.6592712 64.1636505 L 229.6592712 259.0477295 L 225.42182920000002 259.0477295 L 225.4213104 75.39065550000001 L 229.6592712 64.1636505 z M 68.3662415 259.0399475 L 72.6036911 259.0399475 L 72.6036911 223.4877014 L 68.3662415 230.3947754 L 68.3662415 259.0399475 z M 229.6437531 47.6760368 L 229.6437531 34.7518692 L 68.3662415 34.7518692 L 68.3662415 221.28440089999998 L 63.111847 228.36086269999998 L 63.6622201 228.78450769999998 L 67.2644654 224.50490559999997 L 68.3662415 223.19130699999997 L 72.6036911 218.19089499999995 L 76.24783330000001 213.86887349999995 L 100.57073980000001 185.09642779999996 L 101.03679660000002 184.54553969999995 L 101.03679660000002 166.11275469999995 L 148.15719610000002 118.61086259999996 L 148.15719610000002 140.22200759999996 L 151.84376530000003 136.53543839999995 L 211.16802980000003 77.59239949999994 L 210.15107730000003 71.66012559999994 L 201.71859740000002 71.87194809999994 L 152.39465330000002 129.37415299999995 L 152.39465330000002 108.35631549999995 L 148.79292300000003 112.00045769999996 L 97.39265440000003 163.73978419999995 L 96.79935450000002 164.37551109999995 L 96.79935450000002 183.06253809999995 L 72.60369100000003 215.56369779999994 L 72.60369100000003 38.9893188 L 225.406311 38.9893188 L 225.406311 49.9220085 L 190.7013397 68.3972168 L 200.06593320000002 68.1853943 L 212.6091308 67.8463287 L 214.8545837 81.1943893 L 215.6175537 85.982727 L 216.2527618 84.5842971 L 230.491043 51.9983138 L 233.20254509999998 45.811546199999995 L 229.6437531 47.6760368 z"/>
</g>
<g transform="matrix(0.6957030734960304 0 0 0.6957030734960304 -9.914610076260033 -33.52132830545429)">
<linearGradient id="SVGID_3_188739" gradientUnits="userSpaceOnUse" x1="133.9059906" y1="47.3680611" x2="133.9059906" y2="118.6415787">
<stop offset="0%" style="stop-color:rgb(58,40,26);stop-opacity:1"/>
<stop offset="94.52991%" style="stop-color:rgb(228,180,115);stop-opacity:1"/>
<stop offset="100%" style="stop-color:rgb(253,201,127);stop-opacity:1"/>
</linearGradient>
<path style="fill:url(#SVGID_3_188739)" d="M 102.1959915 45.7905998 C 94.7478714 53.5159759 86.7561035 60.6423568 78.2170639 67.1425857 C 85.6600113 59.4117813 93.6621323 52.2962608 102.1959915 45.7905998 z M 119.6759796 45.7016296 C 105.0456161 57.5840187 91.1756286 70.4329223 78.2170639 84.1314315 C 92.8520889 72.2531815 106.7148361 59.3936768 119.6759796 45.7016296 z M 137.1554565 45.6129189 C 116.4285812 62.8717766 96.6912384 81.4540635 78.2170639 101.1200181 C 98.9480743 83.8637466 118.681282 65.271637 137.1554565 45.6129189 z M 154.6354523 45.5242081 C 127.8120728 68.1595307 102.2068558 92.4752045 78.2170639 118.1088639 C 105.0445786 95.4745712 130.6477203 71.1493378 154.6354523 45.5242081 z M 172.1149139 45.4354935 C 139.1955566 73.4472885 107.7224731 103.4960862 78.2170639 135.0977173 C 111.140564 107.0851364 142.6146851 77.0270309 172.1149139 45.4354935 z M 78.2170639 152.0863037 C 117.236557 118.6957016 154.581131 82.9047317 189.5949097 45.3465271 C 150.5790405 78.7350464 113.2380829 114.5172272 78.2170639 152.0863037 z"/>
</g>
</g>
</g>
<g transform="matrix(1.9211538461538462 0 0 1.9211538461538462 640.9063043269232 644.4200814695632)">
<g>
<g>
<path style="fill:rgb(253,201,127)" d="M 11.42 0.51 Q 8.62 0.51 6.35 -0.89 4.08 -2.3 2.75 -4.64 1.43 -6.99 1.43 -9.89 L 1.48 -25.81 Q 1.48 -28.61 2.78 -30.93 4.08 -33.25 6.35 -34.65 8.62 -36.06 11.42 -36.06 14.23 -36.06 16.47 -34.68 18.72 -33.3 20.04 -30.98 21.37 -28.66 21.37 -25.81 L 21.37 -23.46 Q 21.37 -23.26 21.17 -23.26 L 15.45 -23.26 Q 15.25 -23.26 15.25 -23.46 L 15.25 -25.81 Q 15.25 -27.49 14.15 -28.71 13.06 -29.94 11.42 -29.94 9.59 -29.94 8.62 -28.69 7.65 -27.44 7.65 -25.81 L 7.65 -9.89 Q 7.65 -8.01 8.75 -6.83 9.84 -5.66 11.42 -5.66 13.06 -5.66 14.15 -6.96 15.25 -8.26 15.25 -9.89 L 15.25 -12.24 Q 15.25 -12.44 15.45 -12.44 L 21.22 -12.44 Q 21.42 -12.44 21.42 -12.24 L 21.42 -9.89 Q 21.42 -6.99 20.07 -4.64 18.72 -2.3 16.47 -0.89 14.23 0.51 11.42 0.51 Z M 59.31 0 L 42.84 0 42.69 -35.24 48.6 -35.24 48.81 -6.27 59.31 -6.27 59.57 -0.26 59.31 0 Z ..."/>
</g>
</g>
</g>
</svg>

